<?xml version="1.0" encoding="utf-8" standalone="no"?>
<!DOCTYPE svg PUBLIC "-//W3C//DTD SVG 1.1//EN"
  "http://www.w3.org/Graphics/SVG/1.1/DTD/svg11.dtd">
<svg xmlns:xlink="http://www.w3.org/1999/xlink" width="293.4pt" height="286.2pt" viewBox="0 0 293.4 286.2" xmlns="http://www.w3.org/2000/svg" version="1.1">
 <metadata>
  <rdf:RDF xmlns:dc="http://purl.org/dc/elements/1.1/" xmlns:cc="http://creativecommons.org/ns#" xmlns:rdf="http://www.w3.org/1999/02/22-rdf-syntax-ns#">
   <cc:Work>
    <dc:type rdf:resource="http://purl.org/dc/dcmitype/StillImage"/>
    <dc:date>2025-03-17T15:18:18.840385</dc:date>
    <dc:format>image/svg+xml</dc:format>
    <dc:creator>
     <cc:Agent>
      <dc:title>Matplotlib v3.10.1, https://matplotlib.org/</dc:title>
     </cc:Agent>
    </dc:creator>
   </cc:Work>
  </rdf:RDF>
 </metadata>
 <defs>
  <style type="text/css">*{stroke-linejoin: round; stroke-linecap: butt}</style>
 </defs>
 <g id="figure_1">
  <g id="patch_1">
   <path d="M 0 286.2 
L 293.4 286.2 
L 293.4 0 
L 0 0 
L 0 286.2 
z
" style="fill: none"/>
  </g>
  <g id="axes_1">
   <g id="patch_2">
    <path d="M 7.2 279 
L 286.2 279 
L 286.2 7.2 
L 7.2 7.2 
L 7.2 279 
z
" style="fill: none"/>
   </g>
   <g id="LineCollection_1">
    <path d="M 117.877686 210.48843 
L 198.580165 143.1 
" clip-path="url(#p653ab1f82a)" style="fill: none; stroke: #ffffff; stroke-width: 0.5"/>
    <path d="M 117.877686 210.48843 
L 31.410744 143.1 
" clip-path="url(#p653ab1f82a)" style="fill: none; stroke: #ffffff; stroke-width: 0.5"/>
    <path d="M 117.877686 210.48843 
L 146.7 255.41405 
" clip-path="url(#p653ab1f82a)" style="fill: none; stroke: #ffffff; stroke-width: 0.5"/>
    <path d="M 117.877686 210.48843 
L 146.7 165.56281 
" clip-path="url(#p653ab1f82a)" style="fill: none; stroke: #ffffff; stroke-width: 0.5"/>
    <path d="M 146.7 255.41405 
L 175.522314 210.48843 
" clip-path="url(#p653ab1f82a)" style="fill: none; stroke: #ffffff; stroke-width: 0.5"/>
    <path d="M 146.7 255.41405 
L 69.840496 210.48843 
" clip-path="url(#p653ab1f82a)" style="fill: none; stroke: #ffffff; stroke-width: 0.5"/>
    <path d="M 146.7 255.41405 
L 223.559504 210.48843 
" clip-path="url(#p653ab1f82a)" style="fill: none; stroke: #ffffff; stroke-width: 0.5"/>
    <path d="M 223.559504 210.48843 
L 146.7 120.63719 
" clip-path="url(#p653ab1f82a)" style="fill: none; stroke: #ffffff; stroke-width: 0.5"/>
    <path d="M 223.559504 210.48843 
L 261.989256 143.1 
" clip-path="url(#p653ab1f82a)" style="fill: none; stroke: #ffffff; stroke-width: 0.5"/>
    <path d="M 223.559504 210.48843 
L 198.580165 143.1 
" clip-path="url(#p653ab1f82a)" style="fill: none; stroke: #ffffff; stroke-width: 0.5"/>
    <path d="M 175.522314 210.48843 
L 261.989256 143.1 
" clip-path="url(#p653ab1f82a)" style="fill: none; stroke: #ffffff; stroke-width: 0.5"/>
    <path d="M 175.522314 210.48843 
L 146.7 165.56281 
" clip-path="url(#p653ab1f82a)" style="fill: none; stroke: #ffffff; stroke-width: 0.5"/>
    <path d="M 175.522314 210.48843 
L 94.819835 143.1 
" clip-path="url(#p653ab1f82a)" style="fill: none; stroke: #ffffff; stroke-width: 0.5"/>
    <path d="M 146.7 165.56281 
L 223.559504 75.71157 
" clip-path="url(#p653ab1f82a)" style="fill: none; stroke: #ffffff; stroke-width: 0.5"/>
    <path d="M 146.7 165.56281 
L 69.840496 75.71157 
" clip-path="url(#p653ab1f82a)" style="fill: none; stroke: #ffffff; stroke-width: 0.5"/>
    <path d="M 198.580165 143.1 
L 223.559504 75.71157 
" clip-path="url(#p653ab1f82a)" style="fill: none; stroke: #ffffff; stroke-width: 0.5"/>
    <path d="M 198.580165 143.1 
L 117.877686 75.71157 
" clip-path="url(#p653ab1f82a)" style="fill: none; stroke: #ffffff; stroke-width: 0.5"/>
    <path d="M 146.7 120.63719 
L 175.522314 75.71157 
" clip-path="url(#p653ab1f82a)" style="fill: none; stroke: #ffffff; stroke-width: 0.5"/>
    <path d="M 146.7 120.63719 
L 117.877686 75.71157 
" clip-path="url(#p653ab1f82a)" style="fill: none; stroke: #ffffff; stroke-width: 0.5"/>
    <path d="M 146.7 120.63719 
L 69.840496 210.48843 
" clip-path="url(#p653ab1f82a)" style="fill: none; stroke: #ffffff; stroke-width: 0.5"/>
    <path d="M 175.522314 75.71157 
L 146.7 30.78595 
" clip-path="url(#p653ab1f82a)" style="fill: none; stroke: #ffffff; stroke-width: 0.5"/>
    <path d="M 175.522314 75.71157 
L 261.989256 143.1 
" clip-path="url(#p653ab1f82a)" style="fill: none; stroke: #ffffff; stroke-width: 0.5"/>
    <path d="M 175.522314 75.71157 
L 94.819835 143.1 
" clip-path="url(#p653ab1f82a)" style="fill: none; stroke: #ffffff; stroke-width: 0.5"/>
    <path d="M 146.7 30.78595 
L 223.559504 75.71157 
" clip-path="url(#p653ab1f82a)" style="fill: none; stroke: #ffffff; stroke-width: 0.5"/>
    <path d="M 146.7 30.78595 
L 69.840496 75.71157 
" clip-path="url(#p653ab1f82a)" style="fill: none; stroke: #ffffff; stroke-width: 0.5"/>
    <path d="M 146.7 30.78595 
L 117.877686 75.71157 
" clip-path="url(#p653ab1f82a)" style="fill: none; stroke: #ffffff; stroke-width: 0.5"/>
    <path d="M 31.410744 143.1 
L 69.840496 75.71157 
" clip-path="url(#p653ab1f82a)" style="fill: none; stroke: #ffffff; stroke-width: 0.5"/>
    <path d="M 31.410744 143.1 
L 69.840496 210.48843 
" clip-path="url(#p653ab1f82a)" style="fill: none; stroke: #ffffff; stroke-width: 0.5"/>
    <path d="M 31.410744 143.1 
L 117.877686 75.71157 
" clip-path="url(#p653ab1f82a)" style="fill: none; stroke: #ffffff; stroke-width: 0.5"/>
    <path d="M 69.840496 75.71157 
L 94.819835 143.1 
" clip-path="url(#p653ab1f82a)" style="fill: none; stroke: #ffffff; stroke-width: 0.5"/>
    <path d="M 69.840496 210.48843 
L 94.819835 143.1 
" clip-path="url(#p653ab1f82a)" style="fill: none; stroke: #ffffff; stroke-width: 0.5"/>
    <path d="M 223.559504 75.71157 
L 261.989256 143.1 
" clip-path="url(#p653ab1f82a)" style="fill: none; stroke: #ffffff; stroke-width: 0.5"/>
   </g>
   <g id="matplotlib.axis_1">
    <g id="xtick_1"/>
    <g id="xtick_2"/>
    <g id="xtick_3"/>
    <g id="xtick_4"/>
    <g id="xtick_5"/>
    <g id="xtick_6"/>
    <g id="xtick_7"/>
   </g>
   <g id="matplotlib.axis_2">
    <g id="ytick_1"/>
    <g id="ytick_2"/>
    <g id="ytick_3"/>
    <g id="ytick_4"/>
    <g id="ytick_5"/>
    <g id="ytick_6"/>
   </g>
   <g id="PathCollection_1">
    <defs>
     <path id="mec8e7fb417" d="M 0 2.5 
C 0.663008 2.5 1.29895 2.236584 1.767767 1.767767 
C 2.236584 1.29895 2.5 0.663008 2.5 0 
C 2.5 -0.663008 2.236584 -1.29895 1.767767 -1.767767 
C 1.29895 -2.236584 0.663008 -2.5 0 -2.5 
C -0.663008 -2.5 -1.29895 -2.236584 -1.767767 -1.767767 
C -2.236584 -1.29895 -2.5 -0.663008 -2.5 0 
C -2.5 0.663008 -2.236584 1.29895 -1.767767 1.767767 
C -1.29895 2.236584 -0.663008 2.5 0 2.5 
z
" style="stroke: #d3d3d3"/>
    </defs>
    <g clip-path="url(#p653ab1f82a)">
     <use xlink:href="#mec8e7fb417" x="117.877686" y="210.48843" style="fill: #d3d3d3; stroke: #d3d3d3"/>
     <use xlink:href="#mec8e7fb417" x="146.7" y="255.41405" style="fill: #d3d3d3; stroke: #d3d3d3"/>
     <use xlink:href="#mec8e7fb417" x="223.559504" y="210.48843" style="fill: #d3d3d3; stroke: #d3d3d3"/>
     <use xlink:href="#mec8e7fb417" x="175.522314" y="210.48843" style="fill: #d3d3d3; stroke: #d3d3d3"/>
     <use xlink:href="#mec8e7fb417" x="146.7" y="165.56281" style="fill: #d3d3d3; stroke: #d3d3d3"/>
     <use xlink:href="#mec8e7fb417" x="198.580165" y="143.1" style="fill: #d3d3d3; stroke: #d3d3d3"/>
     <use xlink:href="#mec8e7fb417" x="146.7" y="120.63719" style="fill: #d3d3d3; stroke: #d3d3d3"/>
     <use xlink:href="#mec8e7fb417" x="175.522314" y="75.71157" style="fill: #d3d3d3; stroke: #d3d3d3"/>
     <use xlink:href="#mec8e7fb417" x="146.7" y="30.78595" style="fill: #d3d3d3; stroke: #d3d3d3"/>
     <use xlink:href="#mec8e7fb417" x="31.410744" y="143.1" style="fill: #d3d3d3; stroke: #d3d3d3"/>
     <use xlink:href="#mec8e7fb417" x="69.840496" y="75.71157" style="fill: #d3d3d3; stroke: #d3d3d3"/>
     <use xlink:href="#mec8e7fb417" x="69.840496" y="210.48843" style="fill: #d3d3d3; stroke: #d3d3d3"/>
     <use xlink:href="#mec8e7fb417" x="117.877686" y="75.71157" style="fill: #d3d3d3; stroke: #d3d3d3"/>
     <use xlink:href="#mec8e7fb417" x="94.819835" y="143.1" style="fill: #d3d3d3; stroke: #d3d3d3"/>
     <use xlink:href="#mec8e7fb417" x="223.559504" y="75.71157" style="fill: #d3d3d3; stroke: #d3d3d3"/>
     <use xlink:href="#mec8e7fb417" x="261.989256" y="143.1" style="fill: #d3d3d3; stroke: #d3d3d3"/>
    </g>
   </g>
   <g id="PathCollection_2">
    <defs>
     <path id="m2ebae83f26" d="M 0 2.5 
C 0.663008 2.5 1.29895 2.236584 1.767767 1.767767 
C 2.236584 1.29895 2.5 0.663008 2.5 0 
C 2.5 -0.663008 2.236584 -1.29895 1.767767 -1.767767 
C 1.29895 -2.236584 0.663008 -2.5 0 -2.5 
C -0.663008 -2.5 -1.29895 -2.236584 -1.767767 -1.767767 
C -2.236584 -1.29895 -2.5 -0.663008 -2.5 0 
C -2.5 0.663008 -2.236584 1.29895 -1.767767 1.767767 
C -1.29895 2.236584 -0.663008 2.5 0 2.5 
z
" style="stroke: #ffffff"/>
    </defs>
    <g clip-path="url(#p653ab1f82a)">
     <use xlink:href="#m2ebae83f26" x="117.877686" y="210.48843" style="fill: #ffffff; stroke: #ffffff"/>
     <use xlink:href="#m2ebae83f26" x="146.7" y="255.41405" style="fill: #ffffff; stroke: #ffffff"/>
     <use xlink:href="#m2ebae83f26" x="223.559504" y="210.48843" style="fill: #ffffff; stroke: #ffffff"/>
     <use xlink:href="#m2ebae83f26" x="175.522314" y="210.48843" style="fill: #ffffff; stroke: #ffffff"/>
     <use xlink:href="#m2ebae83f26" x="146.7" y="165.56281" style="fill: #ffffff; stroke: #ffffff"/>
     <use xlink:href="#m2ebae83f26" x="198.580165" y="143.1" style="fill: #ffffff; stroke: #ffffff"/>
     <use xlink:href="#m2ebae83f26" x="146.7" y="120.63719" style="fill: #ffffff; stroke: #ffffff"/>
     <use xlink:href="#m2ebae83f26" x="175.522314" y="75.71157" style="fill: #ffffff; stroke: #ffffff"/>
     <use xlink:href="#m2ebae83f26" x="146.7" y="30.78595" style="fill: #ffffff; stroke: #ffffff"/>
     <use xlink:href="#m2ebae83f26" x="31.410744" y="143.1" style="fill: #ffffff; stroke: #ffffff"/>
     <use xlink:href="#m2ebae83f26" x="69.840496" y="75.71157" style="fill: #ffffff; stroke: #ffffff"/>
     <use xlink:href="#m2ebae83f26" x="69.840496" y="210.48843" style="fill: #ffffff; stroke: #ffffff"/>
     <use xlink:href="#m2ebae83f26" x="117.877686" y="75.71157" style="fill: #ffffff; stroke: #ffffff"/>
     <use xlink:href="#m2ebae83f26" x="94.819835" y="143.1" style="fill: #ffffff; stroke: #ffffff"/>
     <use xlink:href="#m2ebae83f26" x="223.559504" y="75.71157" style="fill: #ffffff; stroke: #ffffff"/>
     <use xlink:href="#m2ebae83f26" x="261.989256" y="143.1" style="fill: #ffffff; stroke: #ffffff"/>
    </g>
   </g>
  </g>
 </g>
 <defs>
  <clipPath id="p653ab1f82a">
   <rect x="7.2" y="7.2" width="279" height="271.8"/>
  </clipPath>
 </defs>
</svg>
